<svg width="35" height="13" viewBox="0 0 35 13" fill="none" xmlns="http://www.w3.org/2000/svg">
<path d="M1.38867 10V0.046875H4.875C6.08268 0.046875 6.9987 0.279297 7.62305 0.744141C8.2474 1.20443 8.55957 1.88118 8.55957 2.77441C8.55957 3.26204 8.43424 3.69271 8.18359 4.06641C7.93294 4.43555 7.58431 4.70671 7.1377 4.87988C7.64811 5.00749 8.04915 5.26497 8.34082 5.65234C8.63704 6.03971 8.78516 6.51367 8.78516 7.07422C8.78516 8.03125 8.47982 8.75586 7.86914 9.24805C7.25846 9.74023 6.38802 9.99089 5.25781 10H1.38867ZM3.43945 5.66602V8.35254H5.19629C5.67936 8.35254 6.05534 8.23861 6.32422 8.01074C6.59766 7.77832 6.73438 7.45931 6.73438 7.05371C6.73438 6.14225 6.2627 5.67969 5.31934 5.66602H3.43945ZM3.43945 4.2168H4.95703C5.99154 4.19857 6.50879 3.78613 6.50879 2.97949C6.50879 2.52832 6.37663 2.20475 6.1123 2.00879C5.85254 1.80827 5.4401 1.70801 4.875 1.70801H3.43945V4.2168ZM16.3184 5.68652H12.3809V8.35254H17.002V10H10.3301V0.046875H16.9883V1.70801H12.3809V4.08008H16.3184V5.68652ZM25.834 1.70801H22.7852V10H20.7344V1.70801H17.7266V0.046875H25.834V1.70801ZM31.8086 7.94922H28.2129L27.5293 10H25.3486L29.0537 0.046875H30.9541L34.6797 10H32.499L31.8086 7.94922ZM28.7666 6.28809H31.2549L30.0039 2.5625L28.7666 6.28809Z" fill="#FE7E35"/>
<path d="M0.5 11.3672H34.7207V12.0508H0.5V11.3672Z" fill="#FE7E35"/>
</svg>
