<svg width="24" height="24" viewBox="0 0 24 24" fill="none" xmlns="http://www.w3.org/2000/svg">
<rect width="24" height="24" fill="white" fill-opacity="0.01"/>
<path d="M12 2C6.489 2 2 6.489 2 12C2 17.511 6.489 22 12 22C17.511 22 22 17.511 22 12C22 6.489 17.511 2 12 2ZM12 4C16.4301 4 20 7.56988 20 12C20 16.4301 16.4301 20 12 20C7.56988 20 4 16.4301 4 12C4 7.56988 7.56988 4 12 4Z" fill="white"/>
<path d="M12.596 10.496H11.132V16.244H12.596V10.496ZM11.852 9.716C12.332 9.716 12.716 9.344 12.716 8.864C12.716 8.396 12.332 8 11.852 8C11.384 8 11 8.396 11 8.864C11 9.344 11.384 9.716 11.852 9.716Z" fill="white"/>
</svg>
