<svg width="21" height="21" viewBox="0 0 21 21" fill="none" xmlns="http://www.w3.org/2000/svg">
<path d="M10.5 0.473389C4.989 0.473389 0.5 4.96239 0.5 10.4734C0.5 15.9844 4.989 20.4734 10.5 20.4734C16.011 20.4734 20.5 15.9844 20.5 10.4734C20.5 4.96239 16.011 0.473389 10.5 0.473389ZM10.5 2.47339C14.9301 2.47339 18.5 6.04327 18.5 10.4734C18.5 14.9035 14.9301 18.4734 10.5 18.4734C6.06988 18.4734 2.5 14.9035 2.5 10.4734C2.5 6.04327 6.06988 2.47339 10.5 2.47339Z" fill="white"/>
<path d="M9.90418 12.8036L9.58362 4.47339H11.3118L10.9843 12.8036H9.90418ZM10.5035 16.4734C10.2294 16.4734 9.99245 16.3658 9.79268 16.1507C9.59756 15.9406 9.5 15.6879 9.5 15.3927C9.5 15.0975 9.59756 14.8449 9.79268 14.6347C9.99245 14.4246 10.2294 14.3195 10.5035 14.3195C10.7729 14.3195 11.0052 14.4246 11.2003 14.6347C11.4001 14.8399 11.5 15.0925 11.5 15.3927C11.5 15.6929 11.4001 15.9481 11.2003 16.1582C11.0006 16.3683 10.7683 16.4734 10.5035 16.4734Z" fill="white"/>
</svg>
