<svg width="27" height="27" viewBox="0 0 27 27" fill="none" xmlns="http://www.w3.org/2000/svg">
<path fill-rule="evenodd" clip-rule="evenodd" d="M6.5375 0C2.92694 0 0 3.06758 0 6.85163V16.3669C0 20.1509 2.92694 23.2185 6.5375 23.2185H18.8234C18.8803 23.2234 18.9401 23.2259 19.0031 23.2259C21.3578 23.2259 23.2804 24.4978 24.5486 25.8387C24.9674 26.2815 26.0392 25.9394 26.0392 25.3159V10.4664L26.0392 6.85163C26.0392 3.06758 23.1123 0 19.5017 0H6.5375Z" fill="#FE7E35"/>
<path d="M8.48521 7.50005C8.48521 8.10967 7.99101 8.60386 7.3814 8.60386C6.77178 8.60386 6.27759 8.10967 6.27759 7.50005C6.27759 6.89043 6.77178 6.39624 7.3814 6.39624C7.99101 6.39624 8.48521 6.89043 8.48521 7.50005Z" fill="white"/>
<path d="M13.3894 7.50005C13.3894 8.10967 12.8952 8.60386 12.2856 8.60386C11.676 8.60386 11.1818 8.10967 11.1818 7.50005C11.1818 6.89043 11.676 6.39624 12.2856 6.39624C12.8952 6.39624 13.3894 6.89043 13.3894 7.50005Z" fill="white"/>
<path fill-rule="evenodd" clip-rule="evenodd" d="M12.3537 9.66553H7.31381V10.9974H7.31372C7.31372 11.0044 7.31375 11.0114 7.31381 11.0184V11.0309H7.31395C7.32282 11.6758 7.58726 12.2925 8.05179 12.7492C8.52437 13.2138 9.16532 13.4748 9.83364 13.4748C10.502 13.4748 11.1429 13.2138 11.6155 12.7492C12.08 12.2925 12.3445 11.6758 12.3533 11.0309H12.3537V9.66553Z" fill="white"/>
</svg>
