<svg width="32" height="32" viewBox="0 0 32 32" fill="none" xmlns="http://www.w3.org/2000/svg">
<path fill-rule="evenodd" clip-rule="evenodd" d="M8.03404 0C3.59696 0 0 3.7698 0 8.42008V20.1135C0 24.7638 3.59696 28.5336 8.03404 28.5336H23.1324C23.2023 28.5396 23.2758 28.5426 23.3532 28.5426C26.247 28.5426 28.6096 30.1058 30.1681 31.7535C30.6829 32.2977 32 31.8774 32 31.1111V12.8623L32 8.42007C32 3.76979 28.403 0 23.966 0H8.03404Z" fill="#FE7E35"/>
<path d="M10.5535 8.73574C10.5535 9.6194 9.83717 10.3357 8.95352 10.3357C8.06986 10.3357 7.35352 9.6194 7.35352 8.73574C7.35352 7.85209 8.06986 7.13574 8.95352 7.13574C9.83717 7.13574 10.5535 7.85209 10.5535 8.73574Z" fill="white"/>
<path d="M16.1365 8.73574C16.1365 9.6194 15.4202 10.3357 14.5365 10.3357C13.6529 10.3357 12.9365 9.6194 12.9365 8.73574C12.9365 7.85209 13.6529 7.13574 14.5365 7.13574C15.4202 7.13574 16.1365 7.85209 16.1365 8.73574Z" fill="white"/>
<path d="M17.9575 14.548C17.9575 15.9619 16.8639 17.108 15.5149 17.108C14.1659 17.108 13.0723 15.9619 13.0723 14.548C13.0723 13.1342 14.1659 11.988 15.5149 11.988C16.8639 11.988 17.9575 13.1342 17.9575 14.548Z" fill="white"/>
</svg>
