<svg width="38" height="19" viewBox="0 0 38 19" fill="none" xmlns="http://www.w3.org/2000/svg">
<path d="M3.15023 8.77305C2.79302 8.77305 2.51519 8.73066 2.31674 8.6459C2.11829 8.54701 1.96614 8.42693 1.8603 8.28565C1.76769 8.13025 1.70816 7.96073 1.6817 7.77707C1.65524 7.57929 1.64201 7.38151 1.64201 7.18373V2.05552C1.64201 1.34916 1.80077 0.868828 2.11829 0.614537C2.44904 0.346118 2.82609 0.211909 3.24945 0.211909H14.7C14.9117 0.211909 15.1101 0.240164 15.2953 0.296673C15.4938 0.353182 15.6658 0.452073 15.8113 0.593346C15.9568 0.734619 16.0759 0.925337 16.1685 1.1655C16.2611 1.40567 16.3074 1.70234 16.3074 2.05552V7.18373C16.3074 7.38151 16.2942 7.57929 16.2677 7.77707C16.2413 7.96073 16.1751 8.13025 16.0693 8.28565C15.9767 8.42693 15.8245 8.54701 15.6129 8.6459C15.4144 8.73066 15.1432 8.77305 14.7992 8.77305H3.15023ZM0.272705 12.1636C0.272705 11.9517 0.29255 11.761 0.33224 11.5914C0.38516 11.4078 0.47777 11.2524 0.61007 11.1252C0.742369 10.984 0.927589 10.878 1.16573 10.8074C1.40387 10.7226 1.70816 10.6802 2.0786 10.6802H15.8709C16.2413 10.6802 16.5456 10.7226 16.7837 10.8074C17.0219 10.878 17.2071 10.984 17.3394 11.1252C17.4717 11.2524 17.5577 11.4078 17.5974 11.5914C17.6503 11.761 17.6767 11.9517 17.6767 12.1636C17.6767 12.3331 17.6503 12.5097 17.5974 12.6934C17.5577 12.8629 17.4717 13.0183 17.3394 13.1596C17.2071 13.2867 17.0219 13.3927 16.7837 13.4774C16.5456 13.5622 16.2413 13.6046 15.8709 13.6046H10.5921V16.317C10.5921 16.6843 10.5458 16.9881 10.4532 17.2282C10.3606 17.4684 10.2415 17.6591 10.096 17.8004C9.95043 17.9417 9.77845 18.0405 9.58 18.0971C9.39478 18.1536 9.19633 18.1818 8.98465 18.1818C8.77297 18.1818 8.5679 18.1536 8.36945 18.0971C8.18423 18.0405 8.01224 17.9417 7.85348 17.8004C7.70795 17.6591 7.58888 17.4684 7.49627 17.2282C7.41689 16.9881 7.3772 16.6843 7.3772 16.317V13.6046H2.0786C1.70816 13.6046 1.40387 13.5622 1.16573 13.4774C0.927589 13.3927 0.742369 13.2867 0.61007 13.1596C0.47777 13.0183 0.38516 12.8629 0.33224 12.6934C0.29255 12.5097 0.272705 12.3331 0.272705 12.1636ZM4.85689 5.8487H13.0926V3.13626H4.85689V5.8487Z" fill="#FE7E35"/>
<path d="M22.2251 14.7277H23.138C23.4952 14.7277 23.7796 14.7701 23.9913 14.8548C24.2162 14.9396 24.3882 15.0456 24.5073 15.1727C24.6264 15.314 24.7057 15.4694 24.7454 15.6389C24.7983 15.8226 24.8248 15.9992 24.8248 16.1687C24.8248 16.3806 24.7983 16.5713 24.7454 16.7408C24.7057 16.9245 24.6197 17.0799 24.4874 17.207C24.3684 17.3483 24.1964 17.4543 23.9715 17.5249C23.7598 17.6097 23.482 17.652 23.138 17.652H20.9153C20.5449 17.652 20.2538 17.6097 20.0422 17.5249C19.8305 17.4543 19.6651 17.3483 19.546 17.207C19.4402 17.0799 19.3741 16.9245 19.3476 16.7408C19.3211 16.5713 19.3079 16.3806 19.3079 16.1687V1.84361C19.3079 1.6317 19.3211 1.43392 19.3476 1.25027C19.3741 1.05248 19.4402 0.875892 19.546 0.720491C19.6651 0.565091 19.8305 0.44501 20.0422 0.360246C20.2538 0.261355 20.5449 0.211909 20.9153 0.211909H22.622C22.9925 0.211909 23.2967 0.254291 23.5349 0.339055C23.773 0.409692 23.9582 0.515647 24.0905 0.656919C24.2228 0.784065 24.3088 0.939465 24.3485 1.12312C24.4014 1.29265 24.4279 1.48336 24.4279 1.69527C24.4279 1.8648 24.4014 2.04139 24.3485 2.22505C24.3088 2.39458 24.2228 2.54998 24.0905 2.69125C23.9582 2.81839 23.773 2.92435 23.5349 3.00911C23.2967 3.09388 22.9925 3.13626 22.622 3.13626H22.2251V14.7277ZM28.1191 14.7277H29.0716C29.3891 14.7277 29.6537 14.7701 29.8654 14.8548C30.0771 14.9396 30.2425 15.0456 30.3616 15.1727C30.4806 15.314 30.56 15.4694 30.5997 15.6389C30.6526 15.8226 30.6791 15.9992 30.6791 16.1687C30.6791 16.5784 30.5732 16.9245 30.3616 17.207C30.1499 17.5037 29.7199 17.652 29.0716 17.652H26.8093C26.4389 17.652 26.1478 17.6097 25.9361 17.5249C25.7244 17.4543 25.5591 17.3483 25.44 17.207C25.3342 17.0799 25.268 16.9245 25.2415 16.7408C25.2151 16.5713 25.2019 16.3806 25.2019 16.1687V1.84361C25.2019 1.6317 25.2151 1.43392 25.2415 1.25027C25.268 1.05248 25.3342 0.875892 25.44 0.720491C25.5591 0.565091 25.7244 0.44501 25.9361 0.360246C26.1478 0.261355 26.4389 0.211909 26.8093 0.211909H28.4366C28.807 0.211909 29.1113 0.254291 29.3495 0.339055C29.5876 0.409692 29.7728 0.515647 29.9051 0.656919C30.0374 0.784065 30.1234 0.939465 30.1631 1.12312C30.216 1.29265 30.2425 1.48336 30.2425 1.69527C30.2425 1.8648 30.216 2.04139 30.1631 2.22505C30.1234 2.39458 30.0374 2.54998 29.9051 2.69125C29.7728 2.81839 29.5876 2.92435 29.3495 3.00911C29.1113 3.09388 28.807 3.13626 28.4366 3.13626H28.1191V14.7277ZM31.6713 1.84361C31.6713 1.13725 31.8168 0.656919 32.1079 0.402628C32.399 0.134209 32.7562 0 33.1795 0C33.3912 0 33.583 0.0282548 33.755 0.084764C33.9403 0.141273 34.099 0.240164 34.2313 0.381437C34.3769 0.52271 34.4893 0.713428 34.5687 0.953592C34.6481 1.19376 34.6878 1.49043 34.6878 1.84361V6.92943H35.7395C36.11 6.92943 36.4143 6.97182 36.6524 7.05658C36.8905 7.14134 37.0758 7.25436 37.2081 7.39564C37.3404 7.52278 37.4264 7.67818 37.466 7.86184C37.519 8.03136 37.5454 8.20089 37.5454 8.37042C37.5454 8.58233 37.519 8.78011 37.466 8.96376C37.4264 9.13329 37.3404 9.28869 37.2081 9.42997C37.0758 9.55711 36.8905 9.66306 36.6524 9.74783C36.4143 9.81847 36.11 9.85378 35.7395 9.85378H34.6878V16.317C34.6878 16.6843 34.6481 16.9881 34.5687 17.2282C34.4893 17.4684 34.3769 17.6591 34.2313 17.8004C34.099 17.9417 33.9403 18.0405 33.755 18.0971C33.583 18.1536 33.3912 18.1818 33.1795 18.1818C32.9679 18.1818 32.7694 18.1536 32.5842 18.0971C32.4122 18.0405 32.2534 17.9417 32.1079 17.8004C31.9756 17.6591 31.8698 17.4684 31.7904 17.2282C31.711 16.9881 31.6713 16.6843 31.6713 16.317V1.84361Z" fill="#FE7E35"/>
</svg>
