<svg width="60" height="28" viewBox="0 0 60 28" fill="none" xmlns="http://www.w3.org/2000/svg">
<path d="M4.63211 13.5105C4.05709 13.5105 3.60985 13.4452 3.29039 13.3147C2.97094 13.1624 2.72602 12.9775 2.55564 12.7599C2.40657 12.5206 2.31073 12.2595 2.26813 11.9767C2.22554 11.6721 2.20424 11.3675 2.20424 11.0629V3.1655C2.20424 2.0777 2.45981 1.33799 2.97094 0.946386C3.50336 0.533022 4.11033 0.32634 4.79183 0.32634H23.2244C23.5652 0.32634 23.8846 0.369852 24.1828 0.456876C24.5022 0.543901 24.7791 0.696193 25.0134 0.913753C25.2476 1.13131 25.4393 1.42502 25.5884 1.79487C25.7375 2.16472 25.812 2.6216 25.812 3.1655V11.0629C25.812 11.3675 25.7907 11.6721 25.7481 11.9767C25.7055 12.2595 25.599 12.5206 25.4287 12.7599C25.2796 12.9775 25.0347 13.1624 24.6939 13.3147C24.3745 13.4452 23.9379 13.5105 23.3842 13.5105H4.63211ZM0 18.7319C0 18.4056 0.0319456 18.1119 0.0958367 17.8508C0.181025 17.568 0.330104 17.3287 0.543075 17.1329C0.756045 16.9153 1.0542 16.7521 1.43755 16.6434C1.8209 16.5128 2.31073 16.4476 2.90705 16.4476H25.1092C25.7055 16.4476 26.1954 16.5128 26.5787 16.6434C26.9621 16.7521 27.2602 16.9153 27.4732 17.1329C27.6862 17.3287 27.8246 17.568 27.8885 17.8508C27.9737 18.1119 28.0163 18.4056 28.0163 18.7319C28.0163 18.993 27.9737 19.265 27.8885 19.5478C27.8246 19.8089 27.6862 20.0482 27.4732 20.2657C27.2602 20.4615 26.9621 20.6247 26.5787 20.7552C26.1954 20.8858 25.7055 20.951 25.1092 20.951H16.6117V25.1282C16.6117 25.6939 16.5372 26.1616 16.3881 26.5315C16.239 26.9013 16.0473 27.195 15.8131 27.4126C15.5788 27.6301 15.3019 27.7824 14.9825 27.8695C14.6843 27.9565 14.3649 28 14.0241 28C13.6833 28 13.3532 27.9565 13.0338 27.8695C12.7356 27.7824 12.4588 27.6301 12.2032 27.4126C11.9689 27.195 11.7773 26.9013 11.6282 26.5315C11.5004 26.1616 11.4365 25.6939 11.4365 25.1282V20.951H2.90705C2.31073 20.951 1.8209 20.8858 1.43755 20.7552C1.0542 20.6247 0.756045 20.4615 0.543075 20.2657C0.330104 20.0482 0.181025 19.8089 0.0958367 19.5478C0.0319456 19.265 0 18.993 0 18.7319ZM7.37943 9.00699H20.6368V4.82984H7.37943V9.00699Z" fill="#FE7E35"/>
<path d="M35.338 22.6807H36.8075C37.3825 22.6807 37.8404 22.7459 38.1812 22.8765C38.5432 23.007 38.8201 23.1702 39.0118 23.366C39.2034 23.5835 39.3312 23.8228 39.3951 24.0839C39.4803 24.3667 39.5229 24.6387 39.5229 24.8998C39.5229 25.2261 39.4803 25.5198 39.3951 25.7809C39.3312 26.0637 39.1928 26.303 38.9798 26.4988C38.7882 26.7164 38.5113 26.8796 38.1492 26.9883C37.8085 27.1189 37.3612 27.1841 36.8075 27.1841H33.2296C32.6333 27.1841 32.1648 27.1189 31.824 26.9883C31.4833 26.8796 31.2171 26.7164 31.0254 26.4988C30.855 26.303 30.7485 26.0637 30.7059 25.7809C30.6633 25.5198 30.642 25.2261 30.642 24.8998V2.83916C30.642 2.51282 30.6633 2.20824 30.7059 1.92541C30.7485 1.62082 30.855 1.34887 31.0254 1.10956C31.2171 0.870241 31.4833 0.685315 31.824 0.554779C32.1648 0.402487 32.6333 0.32634 33.2296 0.32634H35.9769C36.5733 0.32634 37.0631 0.391608 37.4464 0.522145C37.8298 0.630925 38.1279 0.794096 38.3409 1.01166C38.5539 1.20746 38.6923 1.44678 38.7562 1.7296C38.8414 1.99068 38.884 2.28438 38.884 2.61072C38.884 2.87179 38.8414 3.14375 38.7562 3.42657C38.6923 3.68765 38.5539 3.92696 38.3409 4.14452C38.1279 4.34033 37.8298 4.5035 37.4464 4.63403C37.0631 4.76457 36.5733 4.82984 35.9769 4.82984H35.338V22.6807ZM44.8259 22.6807H46.3592C46.8704 22.6807 47.2963 22.7459 47.6371 22.8765C47.9778 23.007 48.244 23.1702 48.4357 23.366C48.6274 23.5835 48.7552 23.8228 48.8191 24.0839C48.9042 24.3667 48.9468 24.6387 48.9468 24.8998C48.9468 25.5307 48.7765 26.0637 48.4357 26.4988C48.095 26.9557 47.4028 27.1841 46.3592 27.1841H42.7175C42.1211 27.1841 41.6526 27.1189 41.3118 26.9883C40.9711 26.8796 40.7049 26.7164 40.5132 26.4988C40.3428 26.303 40.2363 26.0637 40.1938 25.7809C40.1512 25.5198 40.1299 25.2261 40.1299 24.8998V2.83916C40.1299 2.51282 40.1512 2.20824 40.1938 1.92541C40.2363 1.62082 40.3428 1.34887 40.5132 1.10956C40.7049 0.870241 40.9711 0.685315 41.3118 0.554779C41.6526 0.402487 42.1211 0.32634 42.7175 0.32634H45.337C45.9333 0.32634 46.4231 0.391608 46.8065 0.522145C47.1898 0.630925 47.488 0.794096 47.701 1.01166C47.9139 1.20746 48.0524 1.44678 48.1162 1.7296C48.2014 1.99068 48.244 2.28438 48.244 2.61072C48.244 2.87179 48.2014 3.14375 48.1162 3.42657C48.0524 3.68765 47.9139 3.92696 47.701 4.14452C47.488 4.34033 47.1898 4.5035 46.8065 4.63403C46.4231 4.76457 45.9333 4.82984 45.337 4.82984H44.8259V22.6807ZM50.5441 2.83916C50.5441 1.75136 50.7784 1.01165 51.2469 0.620046C51.7155 0.206682 52.2905 0 52.972 0C53.3127 0 53.6215 0.0435124 53.8984 0.130537C54.1966 0.217561 54.4521 0.369853 54.6651 0.587413C54.8994 0.804973 55.0804 1.09868 55.2082 1.46853C55.3359 1.83838 55.3998 2.29526 55.3998 2.83916V10.6713H57.093C57.6893 10.6713 58.1791 10.7366 58.5625 10.8671C58.9458 10.9977 59.244 11.1717 59.4569 11.3893C59.6699 11.5851 59.8083 11.8244 59.8722 12.1072C59.9574 12.3683 60 12.6294 60 12.8904C60 13.2168 59.9574 13.5214 59.8722 13.8042C59.8083 14.0653 59.6699 14.3046 59.4569 14.5221C59.244 14.7179 58.9458 14.8811 58.5625 15.0117C58.1791 15.1204 57.6893 15.1748 57.093 15.1748H55.3998V25.1282C55.3998 25.6939 55.3359 26.1616 55.2082 26.5315C55.0804 26.9013 54.8994 27.195 54.6651 27.4126C54.4521 27.6301 54.1966 27.7824 53.8984 27.8695C53.6215 27.9565 53.3127 28 52.972 28C52.6312 28 52.3118 27.9565 52.0136 27.8695C51.7367 27.7824 51.4812 27.6301 51.2469 27.4126C51.0339 27.195 50.8636 26.9013 50.7358 26.5315C50.608 26.1616 50.5441 25.6939 50.5441 25.1282V2.83916Z" fill="#FE7E35"/>
</svg>
