<svg width="20" height="20" viewBox="0 0 20 20" fill="none" xmlns="http://www.w3.org/2000/svg">
<path fill-rule="evenodd" clip-rule="evenodd" d="M5.02128 0C2.2481 0 0 2.35612 0 5.26255V12.5709C0 15.4774 2.2481 17.8335 5.02128 17.8335H14.4577C14.5014 17.8372 14.5474 17.8391 14.5957 17.8391C16.4043 17.8391 17.881 18.8161 18.8551 19.846C19.1768 20.1861 20 19.9234 20 19.4444V8.03893L20 5.26255C20 2.35612 17.7519 0 14.9787 0H5.02128Z" fill="#FE7E35"/>
<path d="M6.51726 5.7604C6.51726 6.22863 6.13769 6.60821 5.66946 6.60821C5.20123 6.60821 4.82166 6.22863 4.82166 5.7604C4.82166 5.29217 5.20123 4.9126 5.66946 4.9126C6.13769 4.9126 6.51726 5.29217 6.51726 5.7604Z" fill="white"/>
<path d="M10.2839 5.7604C10.2839 6.22863 9.90429 6.60821 9.43606 6.60821C8.96783 6.60821 8.58826 6.22863 8.58826 5.7604C8.58826 5.29217 8.96783 4.9126 9.43606 4.9126C9.90429 4.9126 10.2839 5.29217 10.2839 5.7604Z" fill="white"/>
<path fill-rule="evenodd" clip-rule="evenodd" d="M9.4882 7.42383H5.61723V8.44659H5.61719C5.61719 8.45072 5.6172 8.45486 5.61723 8.45899V8.47253H5.61737C5.62423 8.96782 5.82733 9.44139 6.18408 9.79213C6.54705 10.149 7.03935 10.3495 7.55267 10.3495C8.06599 10.3495 8.55829 10.149 8.92127 9.79213C9.27802 9.44139 9.48112 8.96782 9.48798 8.47253H9.4882V7.42383Z" fill="white"/>
</svg>
