<svg width="16" height="16" viewBox="0 0 16 16" fill="none" xmlns="http://www.w3.org/2000/svg">
<path d="M8.00016 1.33301C4.32616 1.33301 1.3335 4.32567 1.3335 7.99967C1.3335 11.6737 4.32616 14.6663 8.00016 14.6663C11.6742 14.6663 14.6668 11.6737 14.6668 7.99967C14.6668 4.32567 11.6742 1.33301 8.00016 1.33301ZM8.00016 2.66634C10.9536 2.66634 13.3335 5.04626 13.3335 7.99967C13.3335 10.9531 10.9536 13.333 8.00016 13.333C5.04675 13.333 2.66683 10.9531 2.66683 7.99967C2.66683 5.04626 5.04675 2.66634 8.00016 2.66634Z" fill="#FF0000"/>
<path d="M7.60295 9.55347L7.38925 4H8.54139L8.32304 9.55347H7.60295ZM8.00249 12C7.81975 12 7.6618 11.9283 7.52862 11.7849C7.39854 11.6448 7.3335 11.4763 7.3335 11.2796C7.3335 11.0828 7.39854 10.9143 7.52862 10.7742C7.6618 10.6341 7.81975 10.5641 8.00249 10.5641C8.18212 10.5641 8.33698 10.6341 8.46706 10.7742C8.60024 10.911 8.66683 11.0794 8.66683 11.2796C8.66683 11.4797 8.60024 11.6498 8.46706 11.7899C8.33388 11.93 8.17902 12 8.00249 12Z" fill="#FF0000"/>
</svg>
